<?xml version="1.0" encoding="UTF-8" standalone="no"?>
<svg
   xmlns:dc="http://purl.org/dc/elements/1.1/"
   xmlns:cc="http://creativecommons.org/ns#"
   xmlns:rdf="http://www.w3.org/1999/02/22-rdf-syntax-ns#"
   xmlns:svg="http://www.w3.org/2000/svg"
   xmlns="http://www.w3.org/2000/svg"
   xmlns:sodipodi="http://sodipodi.sourceforge.net/DTD/sodipodi-0.dtd"
   xmlns:inkscape="http://www.inkscape.org/namespaces/inkscape"
   version="1.1"
   id="Layer_1"
   x="0px"
   y="0px"
   width="100%"
   viewBox="0 0 135 162"
   enable-background="new 0 0 135 162"
   xml:space="preserve"
   sodipodi:docname="RiceR.svg"
   inkscape:version="0.92.4 (5da689c313, 2019-01-14)"><metadata
   id="metadata851"><rdf:RDF><cc:Work
       rdf:about=""><dc:format>image/svg+xml</dc:format><dc:type
         rdf:resource="http://purl.org/dc/dcmitype/StillImage" /></cc:Work></rdf:RDF></metadata><defs
   id="defs849" /><sodipodi:namedview
   pagecolor="#ffffff"
   bordercolor="#666666"
   borderopacity="1"
   objecttolerance="10"
   gridtolerance="10"
   guidetolerance="10"
   inkscape:pageopacity="0"
   inkscape:pageshadow="2"
   inkscape:window-width="2560"
   inkscape:window-height="1459"
   id="namedview847"
   showgrid="false"
   inkscape:zoom="6.9135802"
   inkscape:cx="67.5"
   inkscape:cy="81"
   inkscape:window-x="-13"
   inkscape:window-y="-13"
   inkscape:window-maximized="1"
   inkscape:current-layer="Layer_1" />

<path
   fill="#04235E"
   opacity="1.000000"
   stroke="none"
   d=" M48.937294,122.934280   C49.995975,118.713898 51.892929,114.509193 51.972195,110.270493   C52.373913,88.789482 52.398441,67.299446 52.354275,45.812992   C52.335403,36.634850 55.168461,29.546989 63.586910,24.637646   C73.631226,18.780149 83.248680,12.173705 92.889709,5.653150   C95.411819,3.947357 97.212875,4.088596 99.524963,5.726933   C112.047935,14.600661 114.724564,27.433764 113.497505,41.497272   C112.410263,53.958256 106.812218,64.342865 97.101959,72.400192   C95.571503,73.670128 94.164925,75.089355 92.448471,76.672562   C103.166626,83.648582 106.692680,94.786644 109.924118,106.028084   C111.850540,112.729706 113.213547,119.594963 115.191093,126.279793   C117.650574,134.593750 121.019653,136.330750 129.842072,133.953110   C125.491997,141.714218 121.437874,149.135971 117.119560,156.400681   C116.609360,157.258987 114.574730,157.755447 113.376114,157.572449   C105.243340,156.330750 99.220688,152.091721 95.871643,144.426514   C94.742813,141.842880 93.772423,139.190033 92.369858,135.664505   C86.372879,143.563309 80.705811,151.027603 74.707771,158.927826   C55.165844,145.465378 35.080799,143.409286 14.359576,156.975403   C14.132124,156.430649 13.904672,155.885895 13.677218,155.341141   C15.887949,152.443115 17.918751,149.384109 20.341654,146.675903   C29.169216,136.808868 39.339748,128.992432 52.811737,126.658371   C62.201572,125.031563 70.871086,128.178070 79.566864,130.992188   C82.088669,131.808289 84.541313,133.010757 87.120667,133.390076   C88.130562,133.538589 90.502800,131.696838 90.391136,131.126236   C88.064644,119.238594 85.659019,107.357887 82.822098,95.583496   C81.877357,91.662430 79.916840,87.824120 74.178085,86.760773   C74.178085,92.158936 74.015564,97.082581 74.224815,101.990379   C74.425049,106.686493 73.157959,110.892021 69.189522,113.278000   C63.008942,116.993973 56.424664,120.038490 49.546066,123.225555   C49.080662,123.083542 48.937294,122.934280 48.937294,122.934280  M83.085541,19.275249   C76.920273,22.682959 73.787567,27.302969 74.112778,34.951199   C74.699394,48.747173 74.208366,62.588940 74.168991,76.411583   C74.163963,78.177017 74.168304,79.942474 74.168304,83.168007   C77.674454,81.312286 80.312767,80.396469 82.367073,78.751366   C96.777641,67.211334 101.086403,39.213127 90.663109,23.894604   C89.178818,21.713230 86.117729,20.604773 83.085541,19.275249  z"
   id="path836" />
<path
   fill="#04235D"
   opacity="1.000000"
   stroke="none"
   d=" M45.723587,39.966793   C45.398457,43.531185 44.986626,46.672325 44.976971,49.814697   C44.917175,69.280006 44.861687,88.746185 44.993954,108.210777   C45.041775,115.248070 42.445080,120.827461 36.946659,125.040352   C32.647709,128.334198 28.190315,131.421249 23.571625,134.768082   C23.571625,120.392387 23.571625,106.868454 23.571625,93.318451   C14.490040,91.976669 12.696035,92.556694 9.271969,98.198105   C3.687819,91.691261 2.920179,84.232056 5.274748,76.608315   C8.189161,67.171875 17.005466,70.701668 24.097807,69.358589   C24.097807,63.921486 24.340158,58.656342 24.038061,53.422619   C23.636885,46.472370 26.940794,41.975727 32.868137,39.210499   C37.280891,37.151855 41.900337,35.536247 47.262772,33.388947   C46.623314,36.122311 46.223057,37.833210 45.723587,39.966793  z"
   id="path838" />
<path
   fill="#05245E"
   opacity="1.000000"
   stroke="none"
   d=" M9.285053,26.999138   C7.263937,28.729660 5.555664,30.247879 3.692042,31.904163   C2.128957,13.632376 16.267023,2.329786 33.273926,7.879281   C36.428486,8.908640 39.556362,10.025331 42.733185,10.979811   C50.498936,13.313037 58.093426,14.086305 64.826378,7.466148   C64.478180,18.473463 53.682945,29.299023 41.946777,29.838181   C36.328339,30.096292 30.561794,28.479183 24.956314,27.274172   C19.816481,26.169262 14.838176,23.507866 9.285053,26.999138  z"
   id="path840" />
<path
   fill="#04235E"
   opacity="1.000000"
   stroke="none"
   d=" M49.153553,123.156998   C48.755798,123.313477 48.285149,123.396507 47.814499,123.479538   C48.039124,123.289429 48.263744,123.099327 48.712830,122.921753   C48.937294,122.934280 49.080662,123.083542 49.153553,123.156998  z"
   id="path842" />

</svg>